<svg width="24" height="24" viewBox="0 0 24 24" fill="none" xmlns="http://www.w3.org/2000/svg">
  <path d="M12 2C13.1 2 14 2.9 14 4C14 5.1 13.1 6 12 6C10.9 6 10 5.1 10 4C10 2.9 10.9 2 12 2ZM21 9V7L15 1L9 7V9C9 10.1 9.9 11 11 11V13C11 14.1 11.9 15 13 15H15C16.1 15 17 14.1 17 13V11C18.1 11 19 10.1 19 9ZM11 9H13V11H11V9ZM7 13C7.6 13 8 13.4 8 14S7.6 15 7 15 6 14.6 6 14 6.4 13 7 13ZM17 13C17.6 13 18 13.4 18 14S17.6 15 17 15 16 14.6 16 14 16.4 13 17 13ZM12 16C13.1 16 14 16.9 14 18V22H10V18C10 16.9 10.9 16 12 16Z" fill="currentColor"/>
  <circle cx="12" cy="8" r="1.5" fill="currentColor" opacity="0.7"/>
  <path d="M8 18C8 19.1 8.9 20 10 20H14C15.1 20 16 19.1 16 18V16H8V18Z" fill="currentColor" opacity="0.5"/>
</svg>
